<svg xmlns="http://www.w3.org/2000/svg" width="200.000" height="200.000"
    viewBox="227 186 110.000 110.000" version="1.1">
    <desc>Produce by Acme CAD Converter</desc>
    <path
        d="M326.63 204.57L326.63 277.35L326.43 279.84L325.85 282.27L324.89 284.57L323.59 286.7L321.97 288.6L320.07 290.22L317.94 291.53L315.63 292.48L313.2 293.07L310.71 293.26L308.23 293.07L305.8 292.48L303.49 291.53L301.36 290.22L299.46 288.6L297.84 286.7L296.54 284.57L295.58 282.27L295 279.84L294.8 277.35L294.8 204.57L295 202.09L295.58 199.66L296.54 197.35L297.84 195.22L299.46 193.32L301.36 191.7L303.49 190.4L305.8 189.44L308.23 188.86L310.71 188.66L313.2 188.86L315.63 189.44L317.94 190.4L320.07 191.7L321.97 193.32L323.59 195.22L324.89 197.35L325.85 199.66L326.43 202.09L326.63 204.57ZM237.27 204.57L237.27 277.35L237.46 279.84L238.05 282.27L239 284.57L240.31 286.7L241.93 288.6L243.83 290.22L245.96 291.53L248.26 292.48L250.69 293.07L253.18 293.26L255.67 293.07L258.1 292.48L260.41 291.53L262.53 290.22L264.43 288.6L266.05 286.7L267.36 284.57L268.32 282.27L268.9 279.84L269.09 277.35L269.09 204.57L268.9 202.09L268.32 199.66L267.36 197.35L266.05 195.22L264.43 193.32L262.53 191.7L260.41 190.4L258.1 189.44L255.67 188.86L253.18 188.66L250.69 188.86L248.26 189.44L245.96 190.4L243.83 191.7L241.93 193.32L240.31 195.22L239 197.35L238.05 199.66L237.46 202.09L237.27 204.57Z"
        fill="black" stroke="black" stroke-width="0.5" />
</svg>