<?xml version="1.0" encoding="UTF-8"?>
<svg xmlns="http://www.w3.org/2000/svg" width="200.000" height="200.000"
  viewBox="240.0 204.0 140.000 140.000" version="1.1">
  <desc>Produce by Acme CAD Converter</desc>
  <path
    d="M358.9 256.25L275.94 208.35L275.94 208.35L273.44 207.14L270.8 206.28L268.07 205.8L265.3 205.7L262.53 205.99L259.84 206.66L257.27 207.7L254.86 209.09L252.68 210.8L250.75 212.8L249.12 215.04L247.81 217.49L246.87 220.1L246.29 222.82L246.09 225.58L246.09 321.38L246.29 324.15L246.87 326.86L247.81 329.47L249.12 331.92L250.75 334.17L252.68 336.17L254.86 337.87L257.27 339.26L259.84 340.3L262.53 340.97L265.3 341.26L268.07 341.17L270.8 340.69L273.44 339.83L275.94 338.61L358.9 290.71L361.2 289.16L363.26 287.3L365.05 285.18L366.52 282.82L367.65 280.29L368.41 277.62L368.8 274.87L368.8 272.09L368.41 269.35L367.65 266.68L366.52 264.14L365.05 261.79L363.26 259.66L361.2 257.81L358.9 256.25Z"
    fill="black" stroke="black" stroke-width="0.5" />
</svg>